<svg xmlns="http://www.w3.org/2000/svg" width="960" height="640" viewBox="0 0 960 640"><defs>
  <radialGradient id="bg"><stop stop-color="#ff2d62" stop-opacity=".12"/><stop offset="1" stop-color="#08090c"/></radialGradient>
  <linearGradient id="metal" x1="0" y1="0" x2="1" y2=".8"><stop stop-color="#696b71"/><stop offset=".16" stop-color="#23252c"/><stop offset=".48" stop-color="#0a0b0f"/><stop offset=".75" stop-color="#3c3d46"/><stop offset="1" stop-color="#0b0c10"/></linearGradient>
  <linearGradient id="accent" x1="0" y1="0" x2="1" y2="1"><stop stop-color="#ffd2de"/><stop offset=".22" stop-color="#ff2d62"/><stop offset=".56" stop-color="#ff2d62" stop-opacity=".65"/><stop offset="1" stop-color="#20030d"/></linearGradient>
  <linearGradient id="edge"><stop stop-color="#ff2d62" stop-opacity=".08"/><stop offset=".5" stop-color="#ff2d62"/><stop offset="1" stop-color="#fff" stop-opacity=".1"/></linearGradient>
  <radialGradient id="floor"><stop stop-color="#ff2d62" stop-opacity=".35"/><stop offset="1" stop-color="#ff2d62" stop-opacity="0"/></radialGradient>
  <filter id="glow" x="-100%" y="-100%" width="300%" height="300%"><feGaussianBlur stdDeviation="14"/></filter>
  <filter id="smallGlow" x="-60%" y="-60%" width="220%" height="220%"><feGaussianBlur stdDeviation="4"/></filter>
  <filter id="shadow" x="-40%" y="-40%" width="180%" height="200%"><feDropShadow dx="0" dy="24" stdDeviation="20" flood-color="#000" flood-opacity=".8"/></filter>
  </defs><rect width="960" height="640" fill="#08090c"/><rect width="960" height="640" fill="url(#bg)"/><path d="M0 540H960" stroke="#fff" stroke-opacity=".035"/><ellipse cx="480" cy="520" rx="330" ry="95" fill="url(#floor)"/><ellipse cx="480" cy="490" rx="198" ry="48" fill="url(#metal)" stroke="#65404c"/><g filter="url(#shadow)"><path d="M332 384V244c0-137 296-137 296 0v140c0 49-45 80-79 46l-24-26c-27 32-61 32-88 0l-24 26c-35 33-81 3-81-46Z" fill="url(#metal)" stroke="#8e6572"/><ellipse cx="429" cy="277" rx="29" ry="39" fill="#040507"/><ellipse cx="533" cy="277" rx="29" ry="39" fill="#040507"/><ellipse cx="437" cy="270" rx="8" ry="17" fill="#ff2d62"/><ellipse cx="541" cy="270" rx="8" ry="17" fill="#ff2d62"/><path d="M350 211c35-83 222-100 261 9" fill="none" stroke="#ff7196" stroke-width="2"/><path d="M350 211c35-83 222-100 261 9" fill="none" stroke="#ff2d62" stroke-width="20" opacity=".4" filter="url(#glow)"/></g></svg>