<svg xmlns="http://www.w3.org/2000/svg" width="960" height="640" viewBox="0 0 960 640"><defs>
  <radialGradient id="bg"><stop stop-color="#ff2d62" stop-opacity=".12"/><stop offset="1" stop-color="#08090c"/></radialGradient>
  <linearGradient id="metal" x1="0" y1="0" x2="1" y2=".8"><stop stop-color="#696b71"/><stop offset=".16" stop-color="#23252c"/><stop offset=".48" stop-color="#0a0b0f"/><stop offset=".75" stop-color="#3c3d46"/><stop offset="1" stop-color="#0b0c10"/></linearGradient>
  <linearGradient id="accent" x1="0" y1="0" x2="1" y2="1"><stop stop-color="#ffd2de"/><stop offset=".22" stop-color="#ff2d62"/><stop offset=".56" stop-color="#ff2d62" stop-opacity=".65"/><stop offset="1" stop-color="#20030d"/></linearGradient>
  <linearGradient id="edge"><stop stop-color="#ff2d62" stop-opacity=".08"/><stop offset=".5" stop-color="#ff2d62"/><stop offset="1" stop-color="#fff" stop-opacity=".1"/></linearGradient>
  <radialGradient id="floor"><stop stop-color="#ff2d62" stop-opacity=".35"/><stop offset="1" stop-color="#ff2d62" stop-opacity="0"/></radialGradient>
  <filter id="glow" x="-100%" y="-100%" width="300%" height="300%"><feGaussianBlur stdDeviation="14"/></filter>
  <filter id="smallGlow" x="-60%" y="-60%" width="220%" height="220%"><feGaussianBlur stdDeviation="4"/></filter>
  <filter id="shadow" x="-40%" y="-40%" width="180%" height="200%"><feDropShadow dx="0" dy="24" stdDeviation="20" flood-color="#000" flood-opacity=".8"/></filter>
  </defs><rect width="960" height="640" fill="#08090c"/><rect width="960" height="640" fill="url(#bg)"/><path d="M0 540H960" stroke="#fff" stroke-opacity=".035"/><ellipse cx="480" cy="520" rx="330" ry="95" fill="url(#floor)"/><g transform="translate(15 -6) rotate(-8 480 320)"><g transform="translate(152 130)"><rect width="201" height="191" rx="15" fill="url(#metal)" stroke="#72414f"/><ellipse cx="100" cy="89" rx="67" ry="60" fill="url(#floor)"/><ellipse cx="100" cy="84" rx="45" ry="46" fill="none" stroke="url(#accent)" stroke-width="25"/><path d="M31 158h87" stroke="#a6848e" stroke-width="5" stroke-linecap="round"/></g><g transform="translate(373 130)"><rect width="201" height="191" rx="15" fill="url(#metal)" stroke="#72414f"/><ellipse cx="100" cy="89" rx="67" ry="60" fill="url(#floor)"/><rect x="60" y="40" width="81" height="89" rx="26" fill="none" stroke="url(#accent)" stroke-width="20"/><path d="M31 158h97" stroke="#a6848e" stroke-width="5" stroke-linecap="round"/></g><g transform="translate(594 130)"><rect width="201" height="191" rx="15" fill="url(#metal)" stroke="#72414f"/><ellipse cx="100" cy="89" rx="67" ry="60" fill="url(#floor)"/><ellipse cx="100" cy="84" rx="45" ry="46" fill="none" stroke="url(#accent)" stroke-width="25"/><path d="M31 158h107" stroke="#a6848e" stroke-width="5" stroke-linecap="round"/></g><g transform="translate(152 341)"><rect width="201" height="191" rx="15" fill="url(#metal)" stroke="#72414f"/><ellipse cx="100" cy="89" rx="67" ry="60" fill="url(#floor)"/><rect x="60" y="40" width="81" height="89" rx="26" fill="none" stroke="url(#accent)" stroke-width="20"/><path d="M31 158h117" stroke="#a6848e" stroke-width="5" stroke-linecap="round"/></g><g transform="translate(373 341)"><rect width="201" height="191" rx="15" fill="url(#metal)" stroke="#72414f"/><ellipse cx="100" cy="89" rx="67" ry="60" fill="url(#floor)"/><ellipse cx="100" cy="84" rx="45" ry="46" fill="none" stroke="url(#accent)" stroke-width="25"/><path d="M31 158h127" stroke="#a6848e" stroke-width="5" stroke-linecap="round"/></g><g transform="translate(594 341)"><rect width="201" height="191" rx="15" fill="url(#metal)" stroke="#72414f"/><ellipse cx="100" cy="89" rx="67" ry="60" fill="url(#floor)"/><rect x="60" y="40" width="81" height="89" rx="26" fill="none" stroke="url(#accent)" stroke-width="20"/><path d="M31 158h137" stroke="#a6848e" stroke-width="5" stroke-linecap="round"/></g></g><circle cx="849" cy="132" r="4" fill="#b7ff3c"/></svg>